

<svg aria-hidden="true" style="position:absolute;width:0;height:0;overflow:hidden" xmlns="http://www.w3.org/2000/svg">
  <defs>
    <symbol id="untitled1" viewBox="0 0 32 32">
      <path fill="#54493e" style="fill:var(--color1, #54493e)" d="m15.904 32.032 11.68-9.984-4.448-7.392H8.672l-4.48 7.392 11.712 9.984z"/>
      <path fill="#ffae2b" style="fill:var(--color2, #ffae2b)" d="M15.68 22.816c-6.304 0-11.392-5.12-11.392-11.392S9.408 0 15.68 0c6.272 0 11.392 5.12 11.392 11.392S21.984 22.816 15.68 22.816zm0-20.16c-4.832 0-8.768 3.936-8.768 8.768s3.936 8.736 8.768 8.736c4.832 0 8.768-3.936 8.768-8.768s-3.936-8.736-8.768-8.736z"/>
    </symbol>
    <symbol id="untitled2" viewBox="0 0 32 32">
      <path fill="#ffae2b" style="fill:var(--color2, #ffae2b)" d="M14.4 31.904c.16 0 .288.032.448.032h2.304a11.731 11.731 0 0 0 11.744-11.744v-2.304A11.731 11.731 0 0 0 17.152 6.144h-2.304c-.16 0-.288.032-.448.032v25.728z"/>
      <path fill="#54493e" style="fill:var(--color1, #54493e)" d="M18.112 27.776h-2.208c-7.04 0-12.768-5.728-12.768-12.768V12.8C3.136 5.728 8.864 0 15.904 0h2.56l1.504.064V27.68l-1.504.064c-.096.032-.224.032-.352.032zM15.904 2.88c-5.472 0-9.92 4.448-9.92 9.92v2.208c0 5.472 4.448 9.92 9.92 9.92h1.216V2.88h-1.216z"/>
    </symbol>
    <symbol id="untitled3" viewBox="0 0 32 32">
      <path fill="#54493e" style="fill:var(--color1, #54493e)" d="M25.664 0H5.248v20.416h20.416V0z"/>
      <path fill="#ffae2b" style="fill:var(--color2, #ffae2b)" d="M15.616 11.072 27.712 32H3.552l12.064-20.928zm7.68 18.368-7.68-13.28-7.68 13.28h15.36z"/>
    </symbol>
  </defs>
</svg>