

<svg aria-hidden="true" style="position:absolute;width:0;height:0;overflow:hidden" xmlns="http://www.w3.org/2000/svg">
  <defs>
    <symbol id="untitled1" viewBox="0 0 32 32">
      <path fill="#54493e" style="fill:var(--color1, #54493e)" d="m15.904 32.032 11.68-9.984-4.448-7.392H8.672l-4.48 7.392 11.712 9.984z"/>
      <path fill="#ffae2b" style="fill:var(--color2, #ffae2b)" d="M15.68 22.816c-6.304 0-11.392-5.12-11.392-11.392S9.408 0 15.68 0c6.272 0 11.392 5.12 11.392 11.392S21.984 22.816 15.68 22.816zm0-20.16c-4.832 0-8.768 3.936-8.768 8.768s3.936 8.736 8.768 8.736c4.832 0 8.768-3.936 8.768-8.768s-3.936-8.736-8.768-8.736z"/>
    </symbol>
    <symbol id="untitled2" viewBox="0 0 32 32">
      <path fill="#ffae2b" style="fill:var(--color2, #ffae2b)" d="M14.4 31.904c.16 0 .288.032.448.032h2.304a11.731 11.731 0 0 0 11.744-11.744v-2.304A11.731 11.731 0 0 0 17.152 6.144h-2.304c-.16 0-.288.032-.448.032v25.728z"/>
      <path fill="#54493e" style="fill:var(--color1, #54493e)" d="M18.112 27.776h-2.208c-7.04 0-12.768-5.728-12.768-12.768V12.8C3.136 5.728 8.864 0 15.904 0h2.56l1.504.064V27.68l-1.504.064c-.096.032-.224.032-.352.032zM15.904 2.88c-5.472 0-9.92 4.448-9.92 9.92v2.208c0 5.472 4.448 9.92 9.92 9.92h1.216V2.88h-1.216z"/>
    </symbol>
    <symbol id="untitled3" viewBox="0 0 32 32">
      <path fill="#54493e" style="fill:var(--color1, #54493e)" d="M25.664 0H5.248v20.416h20.416V0z"/>
      <path fill="#ffae2b" style="fill:var(--color2, #ffae2b)" d="M15.616 11.072 27.712 32H3.552l12.064-20.928zm7.68 18.368-7.68-13.28-7.68 13.28h15.36z"/>
    </symbol>



    <symbol id="instagram" viewBox="0 0 32 32">
      <path d="M16 2.881c4.275 0 4.781.019 6.462.094 1.563.069 2.406.331 2.969.55a4.952 4.952 0 0 1 1.837 1.194 5.015 5.015 0 0 1 1.2 1.838c.219.563.481 1.412.55 2.969.075 1.688.094 2.194.094 6.463s-.019 4.781-.094 6.463c-.069 1.563-.331 2.406-.55 2.969a4.94 4.94 0 0 1-1.194 1.837 5.02 5.02 0 0 1-1.837 1.2c-.563.219-1.413.481-2.969.55-1.688.075-2.194.094-6.463.094s-4.781-.019-6.463-.094c-1.563-.069-2.406-.331-2.969-.55a4.952 4.952 0 0 1-1.838-1.194 5.02 5.02 0 0 1-1.2-1.837c-.219-.563-.481-1.413-.55-2.969-.075-1.688-.094-2.194-.094-6.463s.019-4.781.094-6.463c.069-1.563.331-2.406.55-2.969a4.964 4.964 0 0 1 1.194-1.838 5.015 5.015 0 0 1 1.838-1.2c.563-.219 1.412-.481 2.969-.55 1.681-.075 2.188-.094 6.463-.094zM16 0c-4.344 0-4.887.019-6.594.094-1.7.075-2.869.35-3.881.744-1.056.412-1.95.956-2.837 1.85a7.833 7.833 0 0 0-1.85 2.831C.444 6.538.169 7.7.094 9.4.019 11.113 0 11.656 0 16s.019 4.887.094 6.594c.075 1.7.35 2.869.744 3.881.413 1.056.956 1.95 1.85 2.837a7.82 7.82 0 0 0 2.831 1.844c1.019.394 2.181.669 3.881.744 1.706.075 2.25.094 6.594.094s4.888-.019 6.594-.094c1.7-.075 2.869-.35 3.881-.744 1.05-.406 1.944-.956 2.831-1.844s1.438-1.781 1.844-2.831c.394-1.019.669-2.181.744-3.881.075-1.706.094-2.25.094-6.594s-.019-4.887-.094-6.594c-.075-1.7-.35-2.869-.744-3.881a7.506 7.506 0 0 0-1.831-2.844A7.82 7.82 0 0 0 26.482.843C25.463.449 24.301.174 22.601.099c-1.712-.081-2.256-.1-6.6-.1z"/>
      <path d="M16 7.781c-4.537 0-8.219 3.681-8.219 8.219s3.681 8.219 8.219 8.219 8.219-3.681 8.219-8.219A8.221 8.221 0 0 0 16 7.781zm0 13.55a5.331 5.331 0 1 1 0-10.663 5.331 5.331 0 0 1 0 10.663zM26.462 7.456a1.919 1.919 0 1 1-3.838 0 1.919 1.919 0 0 1 3.838 0z"/>
    </symbol>
 
  </defs>
</svg>